<svg xmlns="http://www.w3.org/2000/svg" viewBox="0 0 16 16">
    <path class="logo-opening-brace" d="M3,13.72a1.79,1.79,0,0,1-2-2v-2C1,8.88.68,8.42,0,8.38V7.62c.68,0,1-.51,1-1.4V4.32a1.8,1.8,0,0,1,2-2v.83c-.69,0-1,.45-1,1.29V6.3C2,7.21,1.65,7.77,1,8V8c.65.19,1,.75,1,1.66v1.88a1.72,1.72,0,0,0,.23,1,1,1,0,0,0,.8.32Z"/>
    <path class="logo-u" d="M11.47,8.81q0,3.93-3.54,3.93T4.53,9V3.26H5.62V8.89c0,1.91.81,2.87,2.42,2.87s2.34-.93,2.34-2.77V3.26h1.09Z"/>
    <path class="logo-closing-brace" d="M16,8.38c-.68,0-1,.5-1,1.38v2a1.79,1.79,0,0,1-2,2V12.9a1,1,0,0,0,.8-.32,1.72,1.72,0,0,0,.24-1V9.67c0-.91.32-1.47,1-1.66V8c-.65-.21-1-.77-1-1.68V4.4c0-.84-.35-1.27-1-1.29V2.28a1.8,1.8,0,0,1,2,2v1.9c0,.89.33,1.36,1,1.4Z"/>
</svg>